<?xml version="1.0" encoding="utf-8"?>
<!-- Generator: Adobe Illustrator 23.0.1, SVG Export Plug-In . SVG Version: 6.00 Build 0)  -->
<svg xmlns="http://www.w3.org/2000/svg" xmlns:xlink="http://www.w3.org/1999/xlink" version="1.1" id="Layer_1" x="0px" y="0px" viewBox="0 0 100 100" style="enable-background:new 0 0 100 100;" xml:space="preserve">
<title>Artboard 99</title>
<g>
	<g id="line10">
		<circle style="fill:#FFFFFF;" cx="20.9" cy="56.5" r="0.9"/>
		<circle style="fill:#FFFFFF;" cx="79.9" cy="31.6" r="0.7"/>
		<circle style="fill:#F1BC19;" cx="77.3" cy="12.6" r="0.9"/>
		<circle style="fill:#F1BC19;" cx="21.4" cy="64.2" r="0.9"/>
		<circle style="fill:#CEE1F4;" cx="50.4" cy="49.8" r="37.5"/>
		<circle style="fill:#F1BC19;" cx="82.8" cy="14.7" r="4"/>
		<circle style="fill:#5A5EAF;" cx="86.8" cy="23.8" r="1.9"/>
		<circle style="fill:#FBCD59;" cx="77.8" cy="76.2" r="1.9"/>
		<circle style="fill:#FBCD59;" cx="14.6" cy="63.3" r="4"/>
		<circle style="fill:#5A5EAF;" cx="24.9" cy="87.4" r="1.9"/>
		<circle style="fill:#FFFFFF;" cx="76.4" cy="30.1" r="1.8"/>
		<circle style="fill:#FFFFFF;" cx="18.4" cy="51.2" r="2.5"/>
		<path style="fill:#F6CCA4;" d="M54.6,42c0.1-1.5-0.3-2.8-0.2-3.6l0,0c-1.3-1.6-2.2-3.6-4-4.8c-2.1-1.3-4.4-2.2-6.8-2.8    c-5.7-1.4-11.3,2.7-13.1,8.1l-0.1,0.1c0.2,1,0.3,1.9,0.4,2.9c-1.5,0-2.3,0.8-1.8,2.4c0,0,0.6,2.6,1,3.9c0.1,0.7,0.8,1.2,1.5,1.2    c0,0.8,0,1.7,0,2.5c0,1,0.3,2,0.9,2.8c1.5,2.2,9.2,7.2,11.1,7c3,0,9-5.1,10.6-7.7c0.3-0.5,0.4-1.1,0.5-1.7c0-1,0-2,0-3    c0.6-0.1,1.1-0.6,1.3-1.2c0.4-1.3,1-3.9,1-3.9C57.3,42.8,56.1,42,54.6,42z"/>
		<path style="fill:#EDBC94;" d="M59.2,67.6c-0.1,0-0.2-0.1-0.3-0.1l-0.6-0.2C57.1,66.7,49,64,49,64c-0.6-0.2-1-0.6-1.2-1.1    c-0.2-1-0.3-1.9-0.2-2.9c-1.4,0.6-2.8,1.1-4.2,1.4c-1.9,0.2-5.2-2.3-5.2-2.3s-0.1,3-0.2,3.7c-0.2,0.6-0.7,1-1.3,1.1L29,66.6    c-0.8,0.2-1.5,0.5-2.2,0.9c-1.6,1.1-2.8,2.8-3.3,4.7h0c0,0.1-0.1,0.3-0.1,0.6c-0.1,0.4-0.1,0.9-0.1,1.3c0,0.5-0.1,1-0.1,1.5    c7,7.3,16.7,11.5,26.9,11.6c4.5,0,8.9-0.7,13.1-2.3C62.7,75.7,63.5,68.9,59.2,67.6z"/>
		<path style="fill:#8889B9;" d="M34.5,65.2c-0.2,8.8,17.4,9.3,16.2-0.7l4.9,1.7l1.6,20.2c0,0-14.2,3.7-28.6-6.4l0.7-13.2L34.5,65.2    z"/>
		<path style="fill:#FBCD59;" d="M41,85.9c1.4,0.4,2.9,0.7,4.3,0.9l-0.4-13.8h-3.5L41,85.9z"/>
		<polygon style="fill:#F1BC19;" points="46,71.4 44.9,73.6 41.4,73.6 40.3,71.4 43.2,69.1   "/>
		<path style="fill:#E6E7E8;" d="M43.2,69.1l-3.7,3.8l-7.1-7.2l4.8-2.1l1.5,1.3L43.2,69.1z"/>
		<path style="fill:#E6E7E8;" d="M43.2,69.1l3.7,3.8l7.2-7.2l-4.8-2.1L47.7,65L43.2,69.1z"/>
		<g style="opacity:0.3;">
			<g style="opacity:0.8;">
				<ellipse style="fill:#F4989E;" cx="35.8" cy="50.7" rx="2" ry="2"/>
			</g>
			<g style="opacity:0.8;">
				<ellipse style="fill:#F4989E;" cx="50.9" cy="50.7" rx="2" ry="2"/>
			</g>
		</g>
		<path style="fill:#472B29;" d="M32,50.3C32,50.3,32,50.3,32,50.3c-0.1,0-0.2-0.1-0.2-0.2l0.5-4.2c0-0.1,0.1-0.2,0.2-0.2    c0.1,0,0.2,0.1,0.2,0.2l-0.5,4.2C32.2,50.2,32.1,50.3,32,50.3z"/>
		<path style="fill:#472B29;" d="M54.4,49.4C54.4,49.4,54.4,49.4,54.4,49.4c-0.1,0-0.2-0.1-0.2-0.2l0-2.9c0-0.1,0.1-0.2,0.2-0.2    c0,0,0,0,0,0c0.1,0,0.2,0.1,0.2,0.2l0,2.9C54.6,49.4,54.5,49.4,54.4,49.4z"/>
		<path style="fill:#6D1B18;" d="M39.9,54.8c0,0.2-0.1,0.3-0.1,0.5c0,1.4,1.5,2.5,3.5,2.5s3.5-1.1,3.5-2.5c0-0.2,0-0.3-0.1-0.5H39.9    z"/>
		<path style="fill:#EE3E54;" d="M45.1,57.4c-0.5-0.4-1.2-0.7-1.8-0.6c-0.7-0.1-1.3,0.2-1.8,0.6c0.6,0.3,1.2,0.4,1.8,0.4    C43.9,57.8,44.6,57.7,45.1,57.4z"/>
		<path style="fill:#FDFCEF;" d="M40.9,54.8v0.5c0,0.4,0.5,0.7,1.1,0.7h2.6c0.6,0,1.1-0.3,1.1-0.7v-0.4l0,0L40.9,54.8z"/>
		<path style="fill:#472B29;" d="M43.3,58c-2,0-3.6-1.2-3.6-2.7c0-0.2,0-0.4,0.1-0.5c0-0.1,0.1-0.2,0.2-0.2h6.8    c0.1,0,0.2,0.1,0.2,0.2c0,0.2,0.1,0.3,0.1,0.5C47,56.8,45.3,58,43.3,58z M40.1,55c0,0.1,0,0.2,0,0.3c0,1.3,1.5,2.3,3.2,2.3    s3.3-1,3.3-2.3c0-0.1,0-0.2,0-0.3H40.1z"/>
		<path style="opacity:0.41;fill:#472B29;enable-background:new    ;" d="M43.3,53c0.8,0,1.5-0.3,2-0.9c0-0.1,0-0.1,0-0.2l0,0    c0-0.1-0.1-0.1-0.2,0c0,0,0,0,0,0c-0.5,0.5-1.1,0.7-1.8,0.7c-0.7,0-1.3-0.2-1.8-0.7c0,0-0.1,0-0.1,0c0,0-0.1,0-0.1,0    c0,0.1,0,0.1,0,0.2C41.8,52.7,42.5,53,43.3,53z"/>
		<path style="opacity:0.41;fill:#472B29;enable-background:new    ;" d="M44.2,59.7C44.2,59.7,44.3,59.6,44.2,59.7    c0.1-0.1,0-0.2,0-0.2h-1.8c0,0-0.1,0-0.1,0.1c0,0,0,0.1,0.1,0.1c0,0,0,0,0,0H44.2z"/>
		<path style="fill:#512C2B;" d="M41.3,40.9c-2.4-0.7-4.9-1-7.4-0.8c-0.1,0-0.2,0.1-0.2,0.2c0,0.1,0.1,0.2,0.2,0.2    c0,0,5.1,0.9,6.7,1.4h0.1c0.1,0,0.2,0,0.2-0.1l0.6-0.7c0-0.1,0-0.1,0-0.2C41.4,41,41.3,40.9,41.3,40.9z"/>
		<path style="fill:#512C2B;" d="M45.3,40.7c2.4-0.6,5-0.7,7.5-0.4c0.1,0,0.2,0.1,0.2,0.2c0,0.1-0.1,0.2-0.2,0.2    c0,0-5.1,0.6-6.7,1.1H46c-0.1,0-0.1,0-0.2-0.1L45.2,41c0-0.1,0-0.1,0-0.2C45.2,40.8,45.2,40.7,45.3,40.7z"/>
		<path style="fill:#472B29;" d="M37.7,43c-0.5,0-1,0.3-1.2,0.8c0.1,0,0.1,0,0.2,0c0.5,0.1,0.8,0.5,0.7,0.9c0,0.4-0.3,0.7-0.7,0.7    c-0.1,0-0.3,0-0.4-0.1c0.1,0.7,0.7,1.2,1.4,1.3c1-0.2,1.6-1.2,1.4-2.2C39,43.7,38.4,43.2,37.7,43L37.7,43z"/>
		<path style="fill:#472B29;" d="M48.7,43c-0.4,0-0.8,0.2-1.1,0.6c0.1,0,0.2-0.1,0.3-0.1c0.5,0,0.8,0.4,0.8,0.8    c0,0.5-0.4,0.8-0.8,0.8c-0.3,0-0.5-0.1-0.6-0.4c0.2,0.8,1,1.3,1.8,1.1c0.8-0.2,1.3-1,1.1-1.8C50,43.5,49.4,43,48.7,43z"/>
		<path style="fill:#472B29;" d="M43.6,61.6c-1.9,0-5.3-2.1-5.5-2.2c-0.1-0.1-0.2-0.2-0.1-0.3c0.1-0.1,0.2-0.2,0.3-0.1    c0,0,3.7,2.2,5.3,2.1c1.5-0.3,2.9-0.8,4.2-1.6c0.1-0.1,0.3,0,0.3,0.1c0.1,0.1,0,0.3-0.1,0.3c-1.4,0.8-2.9,1.4-4.4,1.7    C43.8,61.6,43.7,61.6,43.6,61.6z"/>
		<path style="fill:#836F61;" d="M55.8,33.8c-0.5-1.9-2.6-5.5-4.8-5.2c-0.4-1.4-1.3-2.6-2.5-3.4c-1.8-1.1-4-1.6-6.1-1.2    c-3.4,0.5-7.5,1.7-9.8,4.5s-4.3,6.8-4.2,10.5c0.5-0.7,1.1-1.4,1.7-2c-0.2,3.4,0.6,6.7,2.3,9.6c-0.1-2.2,0.2-4.4,0.9-6.5    c0,1,0.2,2,0.5,3c-0.1-0.3,4.5-7.4,9.6-9.1c-0.3,0.5-0.6,1.1-0.8,1.7s-1.1,4-1.4,4.1c2.6-1.1,4.9-2.9,6.5-5.3    c0.3-0.5,0.6-1,0.8-1.6h0.4c0,0.1,0.1,0.3,0.1,0.4c0.5,0.9,1,1.8,1.6,2.5c2.2,3.1,4.1,7,3.8,10.8C56.9,42.7,56.8,38,55.8,33.8z"/>
		<path style="fill:#685649;" d="M45.1,24.3c0.4-0.2,0.8-0.3,1.2-0.4c-1.1-0.2-2.2-0.2-3.3,0c-3.6,0.5-8,1.7-10.4,4.4    s-4.6,6.7-4.5,10.4c0.5-0.7,1.2-1.4,1.9-2c-0.2,3.3,0.7,6.7,2.4,9.5C32.2,44.1,33.3,30.9,45.1,24.3z"/>
		<path style="fill:#472B29;" d="M50.8,87.7c-0.2,0-0.4,0-0.5,0C40,87.6,30,83.3,23,75.9c-0.1-0.1-0.1-0.2-0.1-0.4    c0-0.1,0-0.2,0-0.3c-0.2-4,1.1-6.8,4-8.3c0.7-0.4,1.5-0.7,2.3-0.9l7.7-2.6c0.5-0.1,0.8-0.4,0.9-0.8c0.1-0.4,0.2-2,0.3-2.8    c-2.3-1.5-5-3.4-5.8-4.7c-0.7-0.9-1-2-0.9-3.1l0-2c-0.7-0.2-1.3-0.8-1.5-1.6c-0.4-1.2-1-3.8-1-3.9c-0.3-0.8-0.2-1.5,0.1-2.1    c0.2-0.3,0.5-0.6,0.9-0.8c-0.3-1.3-0.4-2.5-0.5-3.8c-0.3,0.3-0.6,0.7-0.9,1.1c-0.1,0.2-0.3,0.2-0.6,0.2c-0.2-0.1-0.3-0.2-0.4-0.5    c-0.1-3.3,1.6-7.3,4.4-10.8c2.7-3.2,7.6-4.3,10.3-4.7c2.3-0.4,4.6,0.1,6.6,1.3c1.2,0.8,2.1,2,2.6,3.3c2.4,0.1,4.5,3.6,5,5.6    c0.7,2.8,0.9,5.8,0.3,8.6c0.8,0.6,1.1,1.6,0.7,2.6c-0.1,0.7-0.7,3-1,3.9c-0.1,0.7-0.6,1.2-1.3,1.4v2.6c0,0.7-0.2,1.3-0.5,1.9    c-1.8,2.4-3.9,4.4-6.4,6c0,0.8,0,1.5,0.2,2.3c0.1,0.3,0.5,0.6,0.9,0.7c0.4,0.1,8.1,2.8,9.3,3.3l0.6,0.2c0.1,0,0.2,0.1,0.3,0.1    c0,0,0,0,0,0c3.8,1.2,3.9,6.1,4.1,13c0,1.5,0.1,3.2,0.2,4.9c0,0.2-0.1,0.4-0.3,0.5C59.4,87,55.1,87.7,50.8,87.7z M23.8,75.4    c6.9,7.1,16.5,11.3,26.4,11.3c4.3,0.1,8.5-0.6,12.6-2c-0.1-1.6-0.1-3.1-0.1-4.5C62.5,73.4,62.4,69,59.3,68c-0.1,0-0.3-0.1-0.4-0.1    l-0.6-0.2c-1.2-0.5-9.1-3.2-9.2-3.2c-0.7-0.2-1.3-0.7-1.5-1.4c-0.3-1-0.4-2-0.3-2.9c0-0.2,0.1-0.3,0.2-0.4    c2.5-1.6,4.6-3.5,6.3-5.9c0.2-0.4,0.4-0.9,0.4-1.4v-3c0-0.3,0.2-0.5,0.5-0.5c0.4,0,0.8-0.3,0.9-0.8c0.4-1.3,1-3.8,1-3.9    c0-0.1,0-0.1,0-0.1c0.3-0.6,0-1.2-0.5-1.5c-0.2-0.1-0.3-0.3-0.3-0.6c0.6-2.8,0.5-5.7-0.2-8.5c-0.4-1.8-2.5-5.1-4.3-4.9    c-0.2,0-0.5-0.1-0.5-0.3c-0.4-1.3-1.2-2.4-2.3-3.1c-1.8-1.1-3.9-1.5-5.9-1.2c-2.6,0.3-7.2,1.4-9.7,4.3c-2.3,2.8-3.8,5.9-4.1,8.7    c0.3-0.3,0.6-0.6,0.9-0.9c0.1-0.1,0.4-0.2,0.5-0.1c0.2,0.1,0.3,0.3,0.3,0.5c-0.1,1.8,0.1,3.5,0.5,5.3c0,0.1,0,0.3-0.1,0.4    c-0.1,0.1-0.2,0.2-0.3,0.2c-0.4,0.1-0.6,0.2-0.7,0.4c-0.2,0.3-0.2,0.7,0,1.3c0,0.1,0.6,2.7,1,3.9c0.1,0.5,0.5,0.9,1,0.9    c0.1,0,0.3,0.1,0.4,0.1c0.1,0.1,0.1,0.2,0.1,0.4V52c0,0.9,0.2,1.8,0.8,2.5c0.7,1,3.1,2.9,5.8,4.6c0.1,0.1,0.2,0.3,0.2,0.4    c0,0.8-0.2,2.8-0.3,3.4c-0.3,0.8-0.9,1.4-1.6,1.5L29.3,67c-0.7,0.2-1.4,0.5-2.1,0.9c-3.7,1.9-3.5,6-3.4,7.3    C23.8,75.3,23.8,75.3,23.8,75.4z"/>
		<path style="fill:#472B29;" d="M32.5,46.7c-0.1,0-0.2,0-0.2-0.1c-1.3-2-2-4.3-2.3-6.6l0.5-0.1c0.3,2,0.9,3.9,1.8,5.6    c0-1.9,0.3-3.8,0.9-5.6c0-0.1,0.2-0.2,0.3-0.2c0.1,0,0.2,0.1,0.2,0.2c0,0.8,0.1,1.5,0.3,2.3c1.2-2,5.3-7.2,9.5-8.6    c0.1,0,0.2,0,0.3,0.1s0.1,0.2,0,0.3c-0.3,0.5-0.6,1-0.8,1.7c-0.1,0.2-0.3,0.8-0.4,1.4c-0.3,1-0.5,1.7-0.7,2.1    c2.3-1.1,4.2-2.8,5.7-4.9c0.3-0.5,0.6-1,0.7-1.5c0-0.1,0.1-0.2,0.2-0.2h0.4c0.1,0,0.3,0.1,0.3,0.3c0,0,0,0.1,0.1,0.2    c0,0,0,0.1,0.1,0.1c0.4,0.9,1,1.7,1.6,2.5c1.7,2.5,3.7,6.1,3.9,9.8c0.5-1.1,0.8-2.2,1.1-3.3l0.5,0.1c-0.4,1.5-0.9,3-1.6,4.4    c-0.1,0.1-0.2,0.2-0.3,0.1c-0.1,0-0.2-0.1-0.2-0.3c0.2-3.9-1.9-7.9-3.8-10.6c-0.6-0.8-1.2-1.7-1.6-2.6c0,0,0-0.1-0.1-0.1    c0,0,0-0.1-0.1-0.1h0c-0.2,0.5-0.4,1.1-0.7,1.5c-1.6,2.4-3.9,4.2-6.6,5.3c0,0,0,0,0,0c-0.1,0-0.3,0-0.3-0.2c0-0.1,0-0.3,0.1-0.3    c0,0,0,0,0,0c0.1-0.2,0.6-1.6,0.8-2.5c0.2-0.7,0.4-1.2,0.5-1.5c0.2-0.4,0.4-0.7,0.5-1.1c-4.6,2-8.7,8-8.8,8.7    c0,0.1-0.1,0.2-0.2,0.2c-0.1,0-0.3,0-0.3-0.2c-0.2-0.5-0.3-1.1-0.4-1.6c-0.4,1.7-0.6,3.4-0.5,5.1C32.7,46.5,32.7,46.6,32.5,46.7    C32.5,46.7,32.5,46.7,32.5,46.7z"/>
		<path style="fill:#5A5EAF;" d="M54.8,42.8c-0.7-0.2-1.5-0.3-2.2-0.3c-1.2,0-2.3,0.1-3.5,0.3c-1.5,0.3-3,0.7-4.4,1.4    c-1,0.6-2.3,0.6-3.3,0c-1.4-0.6-2.9-1.1-4.4-1.4c-1.2-0.2-2.3-0.2-3.5-0.3c-0.8,0-1.5,0.1-2.2,0.3c-0.3,0.2-0.4,0.3-0.1,1.3    c0.2,0.9,0.6,1.8,1.1,2.6c0.8,1.3,2,2.3,3.3,2.9c1.1,0.4,2.3,0.4,3.4,0c1-0.5,1.9-1.3,2.5-2.3c0.3-0.6,0.8-1.6,1.2-1.6h0.6    c0.5,0,0.9,1,1.2,1.6c0.6,1,1.5,1.8,2.5,2.3c1.1,0.4,2.3,0.4,3.4,0c1.4-0.6,2.5-1.6,3.3-2.9c0.5-0.8,0.9-1.7,1.1-2.6    C55.2,43.1,55,43,54.8,42.8z M41.3,46.4c-0.3,0.9-0.9,1.7-1.7,2.3c-1,0.7-2.2,0.9-3.4,0.6c-1.1-0.3-2.2-1-2.9-1.9    c-0.7-1-0.8-2.3-0.3-3.4c0.3-0.7,1.6-0.8,2.3-0.8c1.4,0,2.7,0.2,4,0.6c1.8,0.5,2.1,1.4,2.1,1.4C41.5,45.5,41.5,46,41.3,46.4z     M52.7,47.3c-0.8,0.9-1.8,1.6-2.9,1.9c-1.2,0.3-2.4,0.1-3.4-0.6c-0.8-0.6-1.4-1.4-1.7-2.3c-0.2-0.4-0.2-0.8,0-1.3    c0,0,0.3-0.9,2.1-1.4c1.3-0.4,2.6-0.6,4-0.6c0.7,0,1.9,0.2,2.3,0.8C53.5,45,53.4,46.3,52.7,47.3z"/>
		<g>
			<path style="fill:#FDFCEF;" d="M66.6,70.8c0,0.9-0.7,1.7-1.6,1.7c-0.9,0-1.7-0.7-1.7-1.6c0-0.9,0.7-1.7,1.6-1.7c0,0,0,0,0,0     C65.8,69.2,66.6,69.9,66.6,70.8C66.6,70.8,66.6,70.8,66.6,70.8z"/>
			<path style="fill:#472B29;" d="M64.9,73c-0.6,0-1.1-0.2-1.5-0.6c-0.4-0.4-0.7-0.9-0.7-1.5c0-0.6,0.2-1.1,0.6-1.5     c0.4-0.4,0.9-0.7,1.5-0.7c1.3,0,2.2,0.9,2.2,2.1C67.1,72,66.2,73,64.9,73C64.9,73,64.9,73,64.9,73z M64.9,69.7     C64.9,69.7,64.9,69.7,64.9,69.7c-0.4,0-0.7,0.1-0.9,0.4c-0.2,0.2-0.3,0.5-0.3,0.8c0,0.3,0.1,0.6,0.4,0.8c0.2,0.2,0.5,0.3,0.8,0.3     c0.6,0,1.2-0.6,1.1-1.2c0,0,0,0,0,0C66.1,70.2,65.6,69.7,64.9,69.7z"/>
		</g>
		<g>
			<path style="fill:#FDFCEF;" d="M72.7,65.8c0,1.5-1.2,2.8-2.7,2.8c-1.5,0-2.8-1.2-2.8-2.7c0-1.5,1.2-2.8,2.7-2.8c0,0,0.1,0,0.1,0     C71.5,63.1,72.7,64.3,72.7,65.8z"/>
			<path style="fill:#472B29;" d="M70,69.1c-0.8,0-1.6-0.3-2.3-0.9c-0.6-0.6-1-1.4-1-2.3c0-1.8,1.4-3.3,3.2-3.3     c1.9,0,3.3,1.4,3.3,3.2c0,0.9-0.3,1.7-0.9,2.3C71.7,68.8,70.9,69.1,70,69.1C70,69.1,70,69.1,70,69.1z M70,63.6     c-1.3,0-2.3,1.1-2.3,2.3c0,0.6,0.3,1.2,0.7,1.6c0.4,0.4,1,0.6,1.6,0.6c0.6,0,1.2-0.3,1.6-0.7s0.6-1,0.6-1.6c0,0,0,0,0,0     C72.2,64.6,71.2,63.6,70,63.6z"/>
		</g>
		<g>
			<path style="fill:#FDFCEF;" d="M90.1,44.4c0.1-0.3,0.1-0.6,0.1-0.9c0-3.1-2.6-5.6-5.7-5.5c-2.1-3.7-6.8-5.1-10.5-3     c-1.3,0.7-2.4,1.9-3.1,3.2c-0.4-0.2-0.7-0.3-1.1-0.3c-1.4,0-2.6,1.1-2.6,2.6c0,0,0,0,0,0c0,0.2,0,0.4,0.1,0.6     c-0.5-0.1-1-0.1-1.4-0.1c-4.2-0.1-7.6,3.3-7.7,7.5c0,2.7,1.5,5.2,3.9,6.5c0,0,0,0.1,0,0.2c0,3.1,2.6,5.6,5.7,5.5     c1.6,0,3.1-0.7,4.2-1.9c2.8,3.2,7.7,3.5,11,0.7c0.5-0.4,0.9-0.9,1.2-1.4c0.9,0.4,1.9,0.5,2.8,0.5c4.2,0.1,7.6-3.3,7.7-7.5     C94.6,48.2,92.8,45.5,90.1,44.4z"/>
			<path style="fill:#472B29;" d="M77.8,61.9c-2.1,0-4.3-0.8-5.8-2.4c-1.1,1.1-2.7,1.7-4.2,1.7c0,0-0.1,0-0.1,0     c-3.3,0-6-2.6-6.1-5.9c-2.4-1.4-3.9-4-3.9-6.8c0.1-4.5,3.7-8,8.2-8c0.3,0,0.6,0,0.8,0c0,0,0,0,0,0c0-0.8,0.3-1.6,0.9-2.2     c0.6-0.6,1.4-0.9,2.2-0.9c0.3,0,0.6,0,0.9,0.1c0.7-1.3,1.8-2.3,3.1-3.1c1.9-1.1,4.1-1.3,6.2-0.7c2,0.6,3.7,1.9,4.8,3.6     c3.2,0.1,5.8,2.8,5.9,6c0,0.2,0,0.4,0,0.6c2.7,1.3,4.5,4,4.5,7.1c-0.1,4.4-3.7,8-8.1,8c0,0-0.1,0-0.1,0c-0.9,0-1.8-0.2-2.7-0.4     c-0.3,0.4-0.7,0.8-1.1,1.1C81.7,61.2,79.8,61.9,77.8,61.9z M72,58.2c0.2,0,0.3,0.1,0.4,0.2c2.6,3,7.2,3.3,10.2,0.7     c0.4-0.4,0.8-0.8,1.1-1.3c0.1-0.2,0.4-0.3,0.6-0.2c0.8,0.3,1.7,0.5,2.7,0.5c0,0,0.1,0,0.1,0c3.8,0,7-3.1,7.1-7     c0-2.8-1.7-5.2-4.3-6.3c-0.2-0.1-0.3-0.3-0.3-0.6c0.1-0.3,0.1-0.6,0.1-0.8c0-2.8-2.3-5-5.1-5c0,0,0,0-0.1,0     c-0.2,0-0.3-0.1-0.4-0.3c-0.9-1.7-2.5-2.9-4.3-3.4c-1.9-0.5-3.8-0.3-5.5,0.6c-1.3,0.7-2.3,1.8-2.9,3c-0.1,0.2-0.4,0.3-0.7,0.2     c-0.3-0.1-0.6-0.2-0.9-0.2c-0.6,0-1.1,0.2-1.5,0.6c-0.4,0.4-0.6,0.9-0.6,1.5c0,0.2,0,0.3,0.1,0.5c0,0.2,0,0.3-0.1,0.5     s-0.3,0.2-0.4,0.2c-0.4-0.1-0.9-0.1-1.3-0.1c0,0-0.1,0-0.1,0c-3.9,0-7,3.1-7.1,7c0,2.5,1.4,4.8,3.7,6c0.2,0.1,0.3,0.3,0.3,0.4     v0.1c0,2.8,2.3,5,5.1,5c0,0,0,0,0.1,0c1.5,0,2.9-0.6,3.9-1.7C71.7,58.3,71.9,58.2,72,58.2z"/>
		</g>
		<g>
			<path style="fill:#8889B9;" d="M76.4,51.1c0-0.1,0-0.1,0-0.2v-0.2c0-0.4,0.1-0.9,0.2-1.3c0.1-0.4,0.3-0.7,0.5-1     c0.2-0.3,0.4-0.6,0.6-0.9c0.2-0.3,0.4-0.5,0.6-0.8c0.2-0.3,0.3-0.6,0.5-0.9c0.1-0.3,0.2-0.7,0.2-1c0-0.5-0.2-1-0.5-1.4     c-0.4-0.4-1-0.6-1.5-0.6c-0.3,0-0.7,0-1,0.1c-0.2,0-0.5,0.1-0.7,0.2c-0.2,0.1-0.3,0.2-0.4,0.3c-0.1,0.1-0.2,0.2-0.3,0.4     c0.3,0,0.5,0.1,0.7,0.3c0.2,0.2,0.3,0.5,0.3,0.8c0,0.4-0.1,0.7-0.3,1c-0.3,0.3-0.6,0.4-1,0.4c-0.4,0-0.8-0.1-1-0.4     c-0.2-0.3-0.4-0.6-0.4-1c0-0.4,0.1-0.7,0.2-1.1c0.2-0.4,0.4-0.8,0.7-1.1c0.4-0.4,0.8-0.7,1.3-0.9c0.7-0.2,1.4-0.3,2.2-0.3     c0.6,0,1.2,0,1.7,0.1c0.5,0.1,1,0.2,1.4,0.5c0.4,0.2,0.8,0.6,1,1c0.3,0.5,0.4,1,0.3,1.5c0,0.5-0.1,1-0.3,1.4     c-0.2,0.4-0.4,0.7-0.7,1c-0.3,0.3-0.6,0.6-1,0.8c-0.3,0.3-0.7,0.5-1,0.8c-0.3,0.3-0.6,0.6-0.8,1c-0.2,0.4-0.4,0.9-0.4,1.3     L76.4,51.1z M78.5,54.3c0,0.4-0.2,0.7-0.4,1c-0.6,0.6-1.5,0.6-2.1,0c-0.3-0.3-0.4-0.6-0.4-1c0-0.4,0.2-0.7,0.4-1     c0.6-0.5,1.4-0.5,2,0C78.3,53.6,78.5,53.9,78.5,54.3z"/>
			<path style="fill:#472B29;" d="M77.1,56C77.1,56,77.1,56,77.1,56c-0.5,0-0.9-0.2-1.2-0.5c-0.3-0.3-0.5-0.7-0.5-1.1     c0-0.5,0.2-0.9,0.5-1.2c0.7-0.6,1.7-0.6,2.3,0c0.3,0.3,0.5,0.7,0.5,1.2c0,0,0,0,0,0c0,0.4-0.2,0.9-0.5,1.2     C78,55.8,77.5,56,77.1,56z M77,53.1c-0.3,0-0.6,0.1-0.8,0.3c-0.2,0.2-0.3,0.5-0.4,0.8c0,0.3,0.1,0.6,0.3,0.8     c0.2,0.2,0.5,0.4,0.9,0.4c0.3,0,0.6-0.1,0.9-0.3c0.2-0.2,0.3-0.5,0.3-0.8c0-0.3-0.2-0.6-0.4-0.8C77.6,53.3,77.3,53.1,77,53.1z      M77.6,51.4C77.6,51.4,77.6,51.4,77.6,51.4l-1.2,0c-0.1,0-0.2-0.1-0.2-0.2c0-0.1,0-0.1,0-0.2l0-0.2c0-0.5,0.1-0.9,0.2-1.4     c0.1-0.4,0.3-0.7,0.5-1.1c0.2-0.3,0.4-0.6,0.6-0.9c0.2-0.3,0.4-0.5,0.6-0.8c0.2-0.3,0.3-0.5,0.4-0.8c0.1-0.3,0.2-0.6,0.2-0.9     c0-0.5-0.1-0.9-0.5-1.3c-0.3-0.3-0.8-0.5-1.3-0.5c-0.4,0-0.7,0-1,0.1c-0.2,0-0.4,0.1-0.6,0.2c-0.1,0.1-0.3,0.2-0.4,0.3     c0,0,0,0,0,0c0.2,0.1,0.3,0.2,0.5,0.3c0.3,0.3,0.4,0.6,0.4,1c0,0.4-0.1,0.8-0.4,1.1c-0.3,0.4-0.8,0.5-1.2,0.5     c-0.4,0-0.9-0.2-1.2-0.5c-0.3-0.3-0.4-0.7-0.4-1.2c0-0.4,0.1-0.8,0.2-1.2c0.2-0.4,0.5-0.8,0.8-1.2c0.4-0.4,0.9-0.8,1.4-1     c0.8-0.3,1.5-0.4,2.3-0.3c0.6,0,1.2,0,1.8,0.1c0.5,0.1,1,0.3,1.5,0.5c0.5,0.2,0.8,0.6,1.1,1.1c0.3,0.5,0.4,1.1,0.4,1.6     c0,0.5-0.1,1-0.3,1.5c-0.2,0.4-0.5,0.8-0.8,1.1c-0.3,0.3-0.7,0.6-1,0.9c-0.3,0.2-0.6,0.5-1,0.8c-0.3,0.3-0.5,0.6-0.8,0.9     c-0.2,0.4-0.3,0.8-0.4,1.2C77.8,51.3,77.7,51.4,77.6,51.4z M76.7,50.9l0.7,0c0.1-0.4,0.2-0.8,0.4-1.2c0.2-0.4,0.5-0.7,0.9-1.1     c0.4-0.3,0.7-0.6,1-0.8c0.3-0.2,0.7-0.5,1-0.8c0.3-0.3,0.5-0.6,0.7-0.9c0.2-0.4,0.3-0.8,0.3-1.3c0-0.5-0.1-1-0.3-1.4     c-0.2-0.4-0.5-0.7-0.9-0.9c-0.4-0.2-0.9-0.4-1.3-0.5c-0.5-0.1-1.1-0.1-1.7-0.1c0,0,0,0,0,0c-0.7,0-1.4,0.1-2.1,0.3     c-0.5,0.2-0.9,0.5-1.2,0.9c-0.3,0.3-0.5,0.6-0.7,1c-0.1,0.3-0.2,0.6-0.2,1c0,0.3,0.1,0.6,0.3,0.8c0.2,0.2,0.5,0.4,0.8,0.3     c0.3,0,0.6-0.1,0.8-0.3c0.2-0.2,0.3-0.5,0.3-0.8c0-0.3-0.1-0.5-0.2-0.7c-0.1-0.2-0.3-0.2-0.6-0.3c-0.1,0-0.2-0.1-0.2-0.1     c0-0.1,0-0.2,0-0.3c0.1-0.1,0.2-0.3,0.3-0.4c0.1-0.2,0.3-0.3,0.5-0.4c0.2-0.1,0.5-0.2,0.8-0.2c0.3-0.1,0.7-0.1,1-0.1     c0.6-0.1,1.2,0.2,1.7,0.6c0.4,0.4,0.6,1,0.6,1.6c0,0.4-0.1,0.7-0.2,1.1c-0.1,0.3-0.3,0.6-0.5,0.9c-0.2,0.3-0.4,0.6-0.6,0.8     c-0.2,0.3-0.4,0.5-0.6,0.8c-0.2,0.3-0.3,0.6-0.5,1c-0.1,0.4-0.2,0.8-0.2,1.2V50.9z"/>
		</g>
	</g>
</g>
</svg>
