<?xml version="1.0" encoding="utf-8"?>
<!-- Generator: Adobe Illustrator 23.0.1, SVG Export Plug-In . SVG Version: 6.00 Build 0)  -->
<svg xmlns="http://www.w3.org/2000/svg" xmlns:xlink="http://www.w3.org/1999/xlink" version="1.1" id="Layer_1" x="0px" y="0px" viewBox="0 0 100 100" style="enable-background:new 0 0 100 100;" xml:space="preserve">
<title>Artboard 29</title>
<g>
	<g id="line3">
		<circle style="fill:#FFFFFF;" cx="21.3" cy="56.5" r="0.9"/>
		<circle style="fill:#FFFFFF;" cx="80.3" cy="31.6" r="0.7"/>
		<circle style="fill:#F1BC19;" cx="77.7" cy="12.6" r="0.9"/>
		<circle style="fill:#F1BC19;" cx="21.8" cy="64.2" r="0.9"/>
		<circle style="fill:#C0E5E4;" cx="50.8" cy="49.8" r="37.5"/>
		<circle style="fill:#F1BC19;" cx="83.1" cy="14.7" r="4"/>
		<circle style="fill:#00A5A5;" cx="87.1" cy="23.8" r="1.9"/>
		<circle style="fill:#FBCD59;" cx="78.2" cy="76.2" r="1.9"/>
		<circle style="fill:#FBCD59;" cx="15" cy="63.3" r="4"/>
		<circle style="fill:#00A5A5;" cx="25.2" cy="87.4" r="1.9"/>
		<circle style="fill:#FFFFFF;" cx="76.8" cy="30.1" r="1.8"/>
		<circle style="fill:#FFFFFF;" cx="18.7" cy="51.2" r="2.5"/>
		<g>
			<path style="fill:#FDFCEF;" d="M60.5,53.3c0-5.8,6.2-10.4,13.9-10.4s13.9,4.7,13.9,10.4S82,63.8,74.3,63.8h-1.7     c-2,1.8-4.5,3-7.1,3.4c-0.4,0.1-0.8-0.2-0.9-0.7c0-0.1,0-0.3,0.1-0.4c0.6-1.4,1-3,1-4.6l0,0C62.4,59.5,60.5,56.5,60.5,53.3"/>
			<path style="fill:#472B29;" d="M65.4,67.6c-0.6,0-1.2-0.5-1.3-1.1c0-0.2,0-0.5,0.1-0.7c0.6-1.3,0.9-2.7,0.9-4.1     c-3.3-2.1-5.2-5.1-5.2-8.3c0,0,0-0.1,0-0.1c0-6,6.5-10.9,14.4-10.9c7.9,0,14.4,4.9,14.4,10.9c0,6-6.5,10.9-14.4,10.9h-1.5     c-2,1.8-4.6,3-7.3,3.4C65.5,67.6,65.4,67.6,65.4,67.6z M61,53.2c0,0,0,0.1,0,0.1c0,3,1.8,5.8,5,7.7c0.2,0.1,0.2,0.3,0.2,0.4     c0,1.6-0.4,3.3-1,4.8c0,0.1,0,0.1,0,0.1c0,0.1,0,0.1,0.1,0.2c0.1,0,0.1,0.1,0.2,0.1c2.6-0.4,4.9-1.5,6.9-3.2     c0.1-0.1,0.2-0.1,0.3-0.1h1.7c7.4,0,13.4-4.5,13.4-9.9c0-5.5-6-9.9-13.4-9.9C67,43.4,61,47.8,61,53.2z"/>
		</g>
		<path style="fill:#F6CCA4;" d="M55,42c0.1-1.5-0.3-2.8-0.2-3.6l0,0c-1.3-1.6-2.2-3.6-4-4.8c-2.1-1.3-4.4-2.2-6.8-2.8    c-5.7-1.4-11.3,2.7-13.1,8.1c0,0,0,0.1,0,0.1c0.2,1,0.3,1.9,0.3,2.9c-1.5,0-2.3,0.8-1.8,2.4c0,0,0.6,2.6,1,3.9    c0.1,0.7,0.8,1.2,1.5,1.2c0,0.8,0,1.7,0,2.5c0,1,0.3,2,0.9,2.8c1.5,2.2,9.2,7.2,11.1,7c3,0,9-5.1,10.6-7.7    c0.3-0.5,0.5-1.1,0.5-1.7c0-1,0-2,0-3c0.6-0.1,1.1-0.6,1.3-1.2c0.4-1.3,1-3.9,1-3.9C57.7,42.8,56.5,42,55,42z"/>
		<path style="fill:#EDBC94;" d="M59.6,67.6c-0.1,0-0.2-0.1-0.3-0.1l-0.6-0.2c-1.2-0.5-9.3-3.3-9.3-3.3c-0.6-0.2-1-0.6-1.2-1.1    C48,62,47.9,61,48,60c-1.4,0.6-2.8,1.1-4.2,1.4c-1.9,0.2-5.2-2.3-5.2-2.3s-0.1,3-0.2,3.7c-0.2,0.6-0.7,1-1.3,1.1l-7.7,2.6    c-0.8,0.2-1.5,0.5-2.2,0.9c-1.6,1.1-2.8,2.8-3.3,4.7l0,0c0,0.2-0.1,0.4-0.1,0.6c-0.1,0.4-0.1,0.9-0.1,1.3c0,0.5-0.1,1-0.1,1.5    c7,7.3,16.7,11.5,26.8,11.6c4.5,0,8.9-0.7,13.1-2.3C63,75.7,63.8,68.9,59.6,67.6z"/>
		<path style="fill:#00A5A5;" d="M34.9,65.2c-0.2,8.8,17.4,9.3,16.2-0.7l4.9,1.7l1.6,20.2c0,0-14.1,3.7-28.5-6.4l0.7-13.2L34.9,65.2    z"/>
		<path style="fill:#FBCD59;" d="M41.4,85.9c1.4,0.4,2.9,0.7,4.3,0.9l-0.4-13.8h-3.5L41.4,85.9z"/>
		<polygon style="fill:#F1BC19;" points="46.4,71.4 45.3,73.6 41.8,73.6 40.7,71.4 43.5,69.1   "/>
		<path style="fill:#E6E7E8;" d="M43.5,69.1l-3.7,3.8l-7.1-7.2l4.8-2.1L39,65L43.5,69.1z"/>
		<path style="fill:#E6E7E8;" d="M43.5,69.1l3.7,3.8l7.1-7.2l-4.8-2.1L48.1,65L43.5,69.1z"/>
		<g style="opacity:0.3;">
			<g style="opacity:0.8;">
				<ellipse style="fill:#F4989E;" cx="36.2" cy="50.7" rx="2" ry="2"/>
			</g>
			<g style="opacity:0.8;">
				<ellipse style="fill:#F4989E;" cx="51.3" cy="50.7" rx="2" ry="2"/>
			</g>
		</g>
		<path style="fill:#472B29;" d="M32.4,50.3C32.4,50.3,32.4,50.3,32.4,50.3c-0.1,0-0.2-0.1-0.2-0.2l0.5-4.2c0-0.1,0.1-0.2,0.2-0.2    c0.1,0,0.2,0.1,0.2,0.2l-0.5,4.2C32.6,50.2,32.5,50.3,32.4,50.3z"/>
		<path style="fill:#472B29;" d="M54.8,49.4C54.8,49.4,54.8,49.4,54.8,49.4c-0.1,0-0.2-0.1-0.2-0.2l0-2.9c0-0.1,0.1-0.2,0.2-0.2    c0,0,0,0,0,0c0.1,0,0.2,0.1,0.2,0.2l0,2.9C55,49.4,54.9,49.4,54.8,49.4z"/>
		<path style="fill:#6D1B18;" d="M40.3,54.8c0,0.2-0.1,0.3-0.1,0.5c0,1.4,1.5,2.5,3.5,2.5s3.5-1.1,3.5-2.5c0-0.2,0-0.3-0.1-0.5H40.3    z"/>
		<path style="fill:#EE3E54;" d="M45.5,57.4c-1.1-0.8-2.6-0.8-3.6,0C43,58,44.3,58,45.5,57.4z"/>
		<path style="fill:#FDFCEF;" d="M41.3,54.8L41.3,54.8v0.4c0,0.4,0.5,0.7,1.1,0.7H45c0.6,0,1.1-0.3,1.1-0.7v-0.4l0,0H41.3z"/>
		<path style="fill:#472B29;" d="M43.7,58c-2,0-3.6-1.2-3.6-2.7c0-0.2,0-0.4,0.1-0.5c0-0.1,0.1-0.2,0.2-0.2h6.8    c0.1,0,0.2,0.1,0.2,0.2c0,0.2,0.1,0.4,0.1,0.5C47.3,56.8,45.7,58,43.7,58z M40.4,55c0,0.1,0,0.2,0,0.3c0,1.3,1.5,2.3,3.2,2.3    s3.3-1,3.3-2.3c0-0.1,0-0.2,0-0.3H40.4z"/>
		<path style="opacity:0.41;fill:#472B29;enable-background:new    ;" d="M43.7,53c0.8,0,1.5-0.3,2-0.9c0-0.1,0-0.1,0-0.2l0,0    c-0.1-0.1-0.1-0.1-0.2,0c0,0,0,0,0,0c-1,0.9-2.6,0.9-3.6,0c0,0-0.1,0-0.1,0c0,0-0.1,0-0.1,0c-0.1,0-0.1,0.1,0,0.2c0,0,0,0,0,0    C42.2,52.7,42.9,53,43.7,53z"/>
		<path style="opacity:0.41;fill:#472B29;enable-background:new    ;" d="M44.6,59.7C44.6,59.7,44.6,59.6,44.6,59.7    c0.1-0.1,0-0.2,0-0.2h-1.8c0,0-0.1,0-0.1,0.1c0,0,0,0.1,0.1,0.1H44.6z"/>
		<path style="fill:#512C2B;" d="M41.7,40.9c-2.4-0.7-4.9-1-7.4-0.8c-0.1,0-0.2,0.1-0.2,0.2c0,0.1,0.1,0.2,0.2,0.2    c0,0,5.1,0.9,6.7,1.4H41c0.1,0,0.1,0,0.2-0.1l0.6-0.7c0-0.1,0-0.1,0-0.2C41.8,41,41.7,40.9,41.7,40.9z"/>
		<path style="fill:#512C2B;" d="M45.7,40.7c2.4-0.6,5-0.7,7.5-0.4c0.1,0,0.2,0.1,0.2,0.2c0,0.1-0.1,0.2-0.2,0.2    c0,0-5.1,0.6-6.7,1.1h-0.1c-0.1,0-0.1,0-0.2-0.1L45.5,41c0-0.1,0-0.1,0-0.2C45.6,40.8,45.6,40.7,45.7,40.7z"/>
		<path style="fill:#472B29;" d="M38.1,43c-0.5,0-1,0.3-1.2,0.8c0.1,0,0.1,0,0.2,0c0.5,0.1,0.8,0.5,0.7,0.9c0,0.4-0.3,0.7-0.7,0.7    c-0.1,0-0.3,0-0.4-0.1c0.1,0.7,0.7,1.2,1.4,1.3c1-0.2,1.6-1.2,1.4-2.2C39.4,43.7,38.8,43.2,38.1,43L38.1,43z"/>
		<path style="fill:#472B29;" d="M49.1,43c-0.4,0-0.9,0.2-1.1,0.6c0.1,0,0.2-0.1,0.3-0.1c0.5,0,0.8,0.4,0.8,0.8    c0,0.5-0.4,0.8-0.8,0.8c-0.3,0-0.5-0.1-0.6-0.4c-0.1,0.9,0.6,1.7,1.4,1.8c1-0.2,1.6-1.3,1.4-2.3C50.3,43.7,49.8,43.1,49.1,43    L49.1,43z"/>
		<path style="fill:#472B29;" d="M44,61.6c-1.9,0-5.3-2.1-5.5-2.2c-0.1-0.1-0.2-0.2-0.1-0.3s0.2-0.2,0.3-0.1c0,0,3.6,2.2,5.3,2.1    c1.5-0.3,2.9-0.8,4.2-1.6c0.1-0.1,0.3,0,0.3,0.1c0.1,0.1,0,0.3-0.1,0.3c-1.4,0.8-2.9,1.4-4.4,1.7C44.1,61.6,44.1,61.6,44,61.6z"/>
		<path style="fill:#836F61;" d="M56.2,33.8c-0.4-1.9-2.5-5.5-4.8-5.2c-0.4-1.4-1.3-2.6-2.5-3.4c-1.8-1.1-4-1.6-6.1-1.2    c-3.4,0.5-7.5,1.7-9.8,4.5s-4.3,6.8-4.2,10.5c0.5-0.7,1.1-1.4,1.7-2c-0.2,3.4,0.6,6.7,2.3,9.6c-0.1-2.2,0.2-4.4,0.9-6.5    c0,1,0.2,2,0.5,3c-0.1-0.3,4.5-7.4,9.6-9.1c-0.3,0.5-0.6,1.1-0.8,1.7s-1.1,4-1.4,4.1c2.6-1.1,4.9-3,6.5-5.3c0.3-0.5,0.6-1,0.8-1.6    h0.4c0,0.1,0.1,0.3,0.1,0.4c0.5,0.9,1,1.8,1.6,2.5c2.2,3.1,4.1,7,3.8,10.8C57.2,42.7,57.2,38,56.2,33.8z"/>
		<path style="fill:#685649;" d="M45.5,24.3c0.4-0.2,0.8-0.3,1.2-0.4c-1.1-0.2-2.2-0.2-3.3,0c-3.6,0.5-8,1.7-10.4,4.4    s-4.6,6.7-4.5,10.4c0.5-0.7,1.2-1.4,1.9-2c-0.2,3.4,0.7,6.7,2.4,9.5C32.6,44.1,33.7,30.9,45.5,24.3z"/>
		<path style="fill:#472B29;" d="M51.1,87.7c-0.2,0-0.4,0-0.6,0c-10.2-0.1-20.1-4.4-27.2-11.8c-0.1-0.1-0.1-0.2-0.1-0.4    c0,0,0-0.1,0-0.3c-0.2-4,1.1-6.8,4-8.3c0.7-0.4,1.5-0.7,2.3-0.9l7.7-2.6c0.5-0.1,0.8-0.4,0.9-0.8c0.1-0.4,0.2-2,0.2-2.8    c-2.3-1.5-4.9-3.4-5.8-4.7c-0.7-0.9-1-2-0.9-3.1l0-2c-0.7-0.2-1.3-0.8-1.5-1.6c-0.4-1.2-1-3.8-1-3.9c-0.3-0.8-0.2-1.5,0.1-2.1    c0.2-0.3,0.5-0.6,0.9-0.8c-0.3-1.3-0.4-2.5-0.5-3.8c-0.3,0.3-0.6,0.7-0.9,1.1c-0.1,0.2-0.3,0.2-0.6,0.2c-0.2-0.1-0.3-0.2-0.4-0.5    c-0.1-3.3,1.5-7.4,4.4-10.8c2.7-3.2,7.6-4.3,10.3-4.7c2.3-0.4,4.6,0.1,6.6,1.3c1.2,0.8,2.1,2,2.6,3.3c2.4,0.1,4.5,3.6,5,5.6    c0.8,2.8,0.9,5.8,0.3,8.6c0.8,0.6,1.1,1.6,0.7,2.6c-0.1,0.7-0.7,3-1,3.9c-0.1,0.6-0.6,1.2-1.2,1.4v2.6c0,0.7-0.2,1.3-0.5,1.9    c-1.8,2.4-3.9,4.4-6.4,6c0,0.8,0,1.5,0.2,2.3c0.1,0.3,0.5,0.6,0.9,0.7c0.3,0.1,8.1,2.7,9.3,3.3l0.6,0.2c0.1,0,0.2,0.1,0.3,0.1    c0,0,0,0,0,0c3.8,1.2,3.9,6.1,4.1,13c0,1.5,0.1,3.2,0.2,4.9c0,0.2-0.1,0.4-0.3,0.5C59.8,87,55.5,87.7,51.1,87.7z M24.2,75.4    c6.9,7.1,16.5,11.2,26.4,11.3c4.3,0.1,8.5-0.6,12.6-2c-0.1-1.6-0.1-3.2-0.1-4.6c-0.2-6.7-0.3-11.1-3.4-12c-0.1,0-0.3-0.1-0.4-0.1    l-0.6-0.2c-1.2-0.5-9.1-3.2-9.2-3.2c-0.7-0.2-1.2-0.7-1.5-1.4c-0.3-1-0.4-2-0.3-2.9c0-0.2,0.1-0.3,0.2-0.4    c2.5-1.6,4.6-3.5,6.3-5.9c0.2-0.4,0.3-0.9,0.4-1.4l0-3c0-0.3,0.2-0.5,0.4-0.5c0.4-0.1,0.8-0.4,0.8-0.8c0.4-1.3,1-3.8,1-3.9    c0-0.1,0-0.1,0-0.1c0.3-0.6,0-1.2-0.5-1.5c-0.2-0.1-0.3-0.3-0.3-0.6c0.6-2.8,0.5-5.7-0.3-8.5c-0.4-1.8-2.5-5.1-4.3-4.9    c-0.2,0-0.5-0.1-0.5-0.3c-0.4-1.3-1.2-2.4-2.3-3.1c-1.8-1.1-3.9-1.5-5.9-1.2c-2.6,0.3-7.2,1.4-9.7,4.3c-2.3,2.8-3.8,5.9-4.1,8.7    c0.3-0.3,0.6-0.6,0.9-0.9c0.1-0.1,0.4-0.2,0.5-0.1c0.2,0.1,0.3,0.3,0.3,0.5c-0.1,1.8,0.1,3.5,0.5,5.3c0,0.1,0,0.3-0.1,0.4    c-0.1,0.1-0.2,0.2-0.3,0.2c-0.4,0.1-0.6,0.2-0.7,0.4c-0.2,0.3-0.2,0.7,0,1.3c0,0.1,0.6,2.7,1,3.9c0.1,0.5,0.5,0.9,1,0.9    c0.1,0,0.3,0.1,0.4,0.1c0.1,0.1,0.1,0.2,0.1,0.4V52c0,0.9,0.2,1.8,0.8,2.5c0.7,1,3.1,2.9,5.8,4.6c0.2,0.1,0.2,0.3,0.2,0.5l0,0.2    c-0.1,1.4-0.2,2.7-0.3,3.1c-0.3,0.8-0.9,1.4-1.6,1.5L29.7,67c-0.7,0.2-1.4,0.5-2.1,0.9c-3.7,1.9-3.5,6-3.4,7.3    C24.2,75.3,24.2,75.3,24.2,75.4z"/>
		<path style="fill:#472B29;" d="M32.9,46.7c-0.1,0-0.2,0-0.2-0.1c-1.2-2-2-4.3-2.3-6.6l0.5-0.1c0.3,2,0.9,3.9,1.8,5.6    c0-1.9,0.3-3.8,0.9-5.6c0-0.1,0.2-0.2,0.3-0.2c0.1,0,0.2,0.1,0.2,0.2c0,0.8,0.1,1.5,0.3,2.3c1.2-2,5.3-7.2,9.5-8.6    c0.1,0,0.2,0,0.3,0.1c0.1,0.1,0.1,0.2,0,0.3c-0.3,0.5-0.6,1-0.8,1.7c-0.1,0.2-0.3,0.8-0.4,1.4c-0.3,1-0.5,1.6-0.6,2.1    c2.3-1.1,4.2-2.8,5.7-4.9c0.3-0.5,0.6-1,0.7-1.5c0-0.1,0.1-0.2,0.2-0.2h0.4c0.1,0,0.3,0.1,0.3,0.3c0,0,0,0.1,0.1,0.2    c0,0,0,0.1,0.1,0.1c0.4,0.9,1,1.7,1.6,2.5c1.7,2.5,3.7,6.1,3.9,9.8c0.5-1.1,0.9-2.2,1.2-3.3l0.5,0.1c-0.4,1.5-0.9,3-1.7,4.4    c-0.1,0.1-0.2,0.2-0.3,0.1c-0.1,0-0.2-0.1-0.2-0.3c0.2-3.9-1.9-7.9-3.8-10.6c-0.6-0.8-1.2-1.7-1.6-2.6c0,0,0-0.1-0.1-0.1    c0,0,0-0.1-0.1-0.1h0c-0.2,0.5-0.4,1-0.7,1.5c-1.6,2.4-3.9,4.2-6.5,5.3c0,0,0,0,0,0c-0.1,0-0.3,0-0.3-0.2c0-0.1,0-0.3,0.1-0.3    c0,0,0,0,0,0c0.1-0.2,0.6-1.6,0.8-2.5c0.2-0.7,0.4-1.2,0.5-1.5c0.2-0.4,0.4-0.7,0.5-1.1c-4.6,2-8.7,8-8.8,8.7    c0,0.1-0.1,0.2-0.2,0.2c-0.1,0-0.3,0-0.3-0.2c-0.2-0.5-0.3-1.1-0.4-1.6c-0.4,1.7-0.6,3.4-0.5,5.1C33.1,46.5,33,46.6,32.9,46.7    C32.9,46.7,32.9,46.7,32.9,46.7z"/>
		<path style="fill:#00A5A5;" d="M55.1,42.8c-0.7-0.2-1.5-0.3-2.2-0.3c-1.2,0-2.3,0.1-3.5,0.3c-1.5,0.3-3,0.7-4.4,1.4    c-0.5,0.3-1.1,0.4-1.7,0.4c-0.6,0-1.2-0.1-1.7-0.4c-1.4-0.6-2.9-1.1-4.4-1.4c-1.2-0.2-2.3-0.2-3.5-0.3c-0.7,0-1.5,0.1-2.2,0.3    c-0.3,0.2-0.4,0.3-0.1,1.3c0.2,0.9,0.6,1.8,1.1,2.6c0.8,1.3,2,2.3,3.3,2.9c1.1,0.4,2.3,0.4,3.4,0c1-0.5,1.9-1.3,2.5-2.3    c0.3-0.6,0.8-1.6,1.2-1.6h0.6c0.5,0,0.9,1,1.2,1.6c0.6,1,1.5,1.8,2.5,2.3c1.1,0.4,2.3,0.4,3.4,0c1.4-0.6,2.5-1.6,3.3-2.9    c0.5-0.8,0.8-1.7,1.1-2.6C55.5,43.1,55.4,43,55.1,42.8z M41.7,46.4c-0.3,0.9-0.9,1.7-1.7,2.3c-1,0.7-2.2,0.9-3.4,0.6    c-1.1-0.3-2.2-1-2.9-1.9c-0.7-1-0.8-2.3-0.3-3.4c0.3-0.7,1.6-0.8,2.3-0.8c1.4,0,2.7,0.2,4,0.6c1.8,0.5,2.1,1.4,2.1,1.4    C41.9,45.5,41.9,46,41.7,46.4z M53.1,47.3c-0.8,0.9-1.8,1.6-2.9,1.9c-1.2,0.3-2.4,0.1-3.4-0.6C46,48,45.4,47.3,45,46.4    c-0.1-0.4-0.1-0.8,0-1.3c0,0,0.3-0.9,2.1-1.4c1.3-0.4,2.6-0.6,4-0.6c0.7,0,1.9,0.2,2.3,0.8C53.8,45,53.7,46.3,53.1,47.3z"/>
		<g>
			<path style="fill:#00A5A5;" d="M73.4,55.9c0-0.1,0-0.1,0-0.2v-0.2c0-0.4,0.1-0.9,0.2-1.3c0.1-0.4,0.3-0.7,0.5-1     c0.2-0.3,0.4-0.6,0.6-0.9c0.2-0.3,0.4-0.5,0.6-0.8c0.2-0.3,0.3-0.6,0.5-0.9c0.1-0.3,0.2-0.7,0.2-1c0-0.5-0.2-1-0.5-1.4     c-0.4-0.4-0.9-0.7-1.5-0.6c-0.3,0-0.7,0-1,0.1c-0.2,0-0.5,0.1-0.7,0.2c-0.2,0.1-0.3,0.2-0.4,0.3c-0.1,0.1-0.2,0.2-0.3,0.4     c0.3,0,0.6,0.1,0.8,0.3c0.2,0.2,0.3,0.5,0.3,0.8c0,0.3-0.1,0.7-0.3,1c-0.3,0.3-0.7,0.4-1.1,0.4c-0.4,0-0.7-0.1-0.9-0.4     c-0.2-0.3-0.4-0.6-0.4-1c0-0.4,0.1-0.7,0.2-1.1c0.2-0.4,0.4-0.8,0.7-1.1c0.4-0.4,0.9-0.6,1.4-0.8c0.7-0.2,1.4-0.3,2.2-0.3     c0.6,0,1.2,0,1.7,0.1c0.5,0.1,1,0.3,1.4,0.5c0.4,0.2,0.7,0.6,0.9,1c0.2,0.5,0.4,1,0.3,1.5c0,0.5-0.1,1-0.3,1.4     c-0.2,0.4-0.4,0.7-0.7,1c-0.3,0.3-0.6,0.6-1,0.8c-0.3,0.3-0.7,0.5-1,0.8c-0.3,0.3-0.6,0.6-0.8,1c-0.2,0.4-0.4,0.9-0.4,1.3     L73.4,55.9z M75.6,59c0,0.8-0.7,1.4-1.5,1.4c-0.4,0-0.7-0.2-1-0.4c-0.7-0.5-0.8-1.4-0.3-2c0.5-0.7,1.4-0.8,2-0.3     c0.1,0.1,0.2,0.2,0.3,0.3C75.4,58.2,75.5,58.6,75.6,59z"/>
			<path style="fill:#472B29;" d="M74.1,60.7C74.1,60.7,74.1,60.7,74.1,60.7c-0.5,0-0.9-0.2-1.2-0.5c-0.3-0.2-0.6-0.6-0.7-1.1     c-0.1-0.4,0-0.9,0.3-1.3c0.5-0.8,1.6-0.9,2.4-0.4c0.1,0.1,0.3,0.2,0.4,0.4c0.3,0.3,0.5,0.7,0.5,1.2c0,0,0,0,0,0     c0,0.5-0.2,0.9-0.5,1.2C75,60.5,74.5,60.7,74.1,60.7z M73.9,57.6c-0.4,0-0.7,0.2-1,0.5c-0.2,0.3-0.3,0.6-0.2,0.9     c0.1,0.3,0.2,0.6,0.5,0.8c0.3,0.2,0.5,0.4,0.9,0.4c0.3,0,0.6-0.1,0.9-0.3c0.2-0.2,0.4-0.5,0.4-0.8c0-0.3-0.1-0.6-0.4-0.9     c-0.1-0.1-0.2-0.2-0.3-0.3C74.4,57.7,74.2,57.6,73.9,57.6z M74.6,56.2C74.6,56.2,74.6,56.2,74.6,56.2l-1.2-0.1     c-0.1,0-0.2-0.1-0.2-0.2c0-0.1,0-0.2,0-0.2l0-0.2c0-0.5,0.1-0.9,0.2-1.3c0.1-0.4,0.3-0.7,0.5-1.1c0.2-0.3,0.4-0.6,0.6-0.9     c0.2-0.3,0.4-0.5,0.6-0.8c0.2-0.3,0.3-0.5,0.4-0.8c0.1-0.3,0.2-0.6,0.2-0.9c0-0.5-0.1-0.9-0.5-1.2C75,48,74.5,47.8,74,47.9     c-0.3,0-0.6,0-1,0.1c-0.2,0-0.4,0.1-0.6,0.2c-0.1,0.1-0.3,0.2-0.4,0.3c0,0,0,0,0,0c0.2,0.1,0.4,0.2,0.5,0.3     c0.2,0.3,0.4,0.6,0.4,1c0,0.4-0.1,0.8-0.4,1.1c-0.3,0.4-0.8,0.5-1.3,0.5c0,0,0,0,0,0c-0.4,0-0.8-0.2-1.1-0.5     c-0.3-0.3-0.4-0.7-0.4-1.2c0-0.4,0.1-0.8,0.2-1.2c0.2-0.4,0.4-0.8,0.8-1.2c0.4-0.4,0.9-0.7,1.5-0.9c0.7-0.2,1.5-0.4,2.3-0.3     c0.6,0,1.2,0,1.8,0.1c0.5,0.1,1,0.3,1.5,0.5c0.4,0.3,0.8,0.7,1,1.1c0.3,0.5,0.4,1.1,0.4,1.6c0,0.5-0.1,1-0.3,1.5     c-0.2,0.4-0.5,0.8-0.8,1.1c-0.3,0.3-0.7,0.6-1,0.8c-0.3,0.2-0.7,0.5-1,0.8c-0.3,0.3-0.6,0.6-0.8,0.9c-0.2,0.4-0.4,0.8-0.4,1.2     C74.9,56.1,74.8,56.2,74.6,56.2z M73.7,55.6l0.7,0c0.1-0.4,0.2-0.8,0.4-1.2c0.2-0.4,0.5-0.8,0.9-1.1c0.3-0.3,0.7-0.6,1-0.8     c0.3-0.2,0.7-0.5,1-0.8c0.3-0.3,0.5-0.6,0.7-0.9c0.2-0.4,0.3-0.8,0.3-1.3c0-0.5-0.1-1-0.3-1.4c-0.2-0.4-0.5-0.7-0.9-0.9     c-0.4-0.2-0.9-0.4-1.3-0.5c-0.6-0.1-1.1-0.1-1.7-0.1c-0.7,0-1.4,0.1-2.1,0.3c-0.5,0.2-0.9,0.4-1.3,0.8c-0.3,0.3-0.5,0.6-0.7,1     c-0.1,0.3-0.2,0.6-0.2,1c0,0.3,0.1,0.6,0.3,0.8c0.2,0.2,0.5,0.3,0.7,0.3c0.4,0,0.7-0.1,0.9-0.3c0.2-0.2,0.3-0.5,0.3-0.8     c0-0.2-0.1-0.5-0.2-0.6c-0.1-0.2-0.4-0.3-0.6-0.3c-0.1,0-0.2-0.1-0.2-0.1s0-0.2,0-0.3c0.1-0.1,0.2-0.3,0.3-0.4     c0.1-0.2,0.3-0.3,0.5-0.4c0.2-0.1,0.5-0.2,0.7-0.2c0.3-0.1,0.7-0.1,1.1-0.1c0.6,0,1.3,0.2,1.7,0.7c0.4,0.4,0.6,1,0.6,1.6     c0,0.4-0.1,0.7-0.2,1.1c-0.1,0.3-0.3,0.6-0.5,0.9c-0.2,0.3-0.4,0.6-0.6,0.8c-0.2,0.3-0.4,0.5-0.6,0.8c-0.2,0.3-0.3,0.6-0.5,1     c-0.1,0.4-0.2,0.8-0.2,1.2V55.6z"/>
		</g>
	</g>
</g>
</svg>
